<?xml version="1.0" encoding="UTF-8"?>
<svg width="26px" height="26px" viewBox="0 0 26 26" version="1.1" xmlns="http://www.w3.org/2000/svg" xmlns:xlink="http://www.w3.org/1999/xlink">
    <!-- Generator: Sketch 51.2 (57519) - http://www.bohemiancoding.com/sketch -->
    <title>Shape</title>
    <desc>Created with Sketch.</desc>
    <defs></defs>
    <g id="Base" stroke="none" stroke-width="1" fill="none" fill-rule="evenodd">
        <g id="Images-/-Your-Logo-Here" transform="translate(-3.000000, -4.000000)" fill="#1F487E" fill-rule="nonzero">
            <g id="noun_wing_1865610_FFFFFF" transform="translate(3.000000, 4.000000)">
                <path d="M7.6450831,24.902607 C4.93852809,26.4845467 1.02969893,25.7367207 0,25.0003997 C1.56468217,23.5622727 7.59906303,17.3524403 7.05832728,7.6824744 C11.73224,6.851237 21.1404668,4.85799298 25.638928,0 C25.7756583,0.614790022 25.8450969,1.24263099 25.8460183,1.87244135 C25.8460183,8.45331047 17.8615373,12.4656848 12.8395978,11.7293638 C15.0799269,12.5835595 17.4492422,13.0504196 19.8461525,13.1099657 C21.7953356,13.112519 23.7320986,12.7997618 25.581403,12.1838119 C24.7357843,16.7196644 21.267022,19.7167211 16.9210022,19.7167211 C14.4819388,19.7167211 10.8808688,18.6294971 9.45999936,16.6909019 C10.5500996,19.5268883 14.8357181,21.3791959 18.1923065,21.7300989 C16.9267547,23.5622727 14.5509689,24.2238111 12.275852,24.2238111 C10.1905679,24.2238111 7.96147103,22.5268212 6.68729052,20.9880253 C6.54347782,22.3858848 7.24816005,24.1058847 7.6450831,24.902607 Z" id="Shape"></path>
            </g>
        </g>
    </g>
</svg>